<svg id="Layer_1" enable-background="new 0 0 64 64" viewBox="0 0 64 64" xmlns="http://www.w3.org/2000/svg"><g><path d="m8.002 29.4c-.619 0-1.229-.286-1.621-.826-.648-.895-.449-2.145.445-2.793l24-17.403c.895-.65 2.145-.449 2.793.445.648.895.449 2.145-.445 2.793l-24 17.403c-.355.258-.766.381-1.172.381z"/></g><g><path d="m55.998 29.4c-.406 0-.817-.124-1.172-.381l-24-17.403c-.895-.648-1.094-1.899-.445-2.793.648-.893 1.898-1.095 2.793-.445l24 17.403c.895.648 1.094 1.899.445 2.793-.391.54-1.002.826-1.621.826z"/></g><g><path d="m40 37.997c-1.104 0-2-.896-2-2v-.002c-1.104 0-2-.894-2-1.999 0-1.104.896-1.999 2-1.999 2.206 0 4 1.794 4 4 0 1.105-.896 2-2 2z"/></g><g><path d="m40 55.997c-1.104 0-2-.896-2-2v-18c0-1.104.896-2 2-2s2 .896 2 2v18c0 1.105-.896 2-2 2z"/></g><g><path d="m38 35.997h-12c-1.104 0-2-.896-2-2s.896-2 2-2h12c1.104 0 2 .896 2 2s-.896 2-2 2z"/></g><g><path d="m23.999 37.997c-1.104 0-1.999-.896-1.999-2 0-2.206 1.794-4 4-4 1.104 0 2 .896 2 2s-.896 2-2 2h-.003c0 1.105-.893 2-1.998 2z"/></g><g><path d="m24 55.997c-1.104 0-2-.896-2-2v-18c0-1.104.896-2 2-2s2 .896 2 2v18c0 1.105-.896 2-2 2z"/></g><g><path d="m54 55.997h-44c-1.104 0-2-.896-2-2s.896-2 2-2h44c1.104 0 2 .896 2 2s-.896 2-2 2z"/></g><g><path d="m14 55.997c-1.104 0-2-.896-2-2v-26.597c0-1.104.896-2 2-2s2 .896 2 2v26.597c0 1.105-.896 2-2 2z"/></g><g><path d="m50 55.997c-1.104 0-2-.896-2-2v-26.597c0-1.104.896-2 2-2s2 .896 2 2v26.597c0 1.105-.896 2-2 2z"/></g><g><path d="m56 29.4h-6c-1.104 0-2-.896-2-2s.896-2 2-2h6c1.104 0 2 .896 2 2s-.896 2-2 2z"/></g><g><path d="m14 29.4h-6c-1.104 0-2-.896-2-2s.896-2 2-2h6c1.104 0 2 .896 2 2s-.896 2-2 2z"/></g></svg>