<svg id="Layer_1" enable-background="new 0 0 64 64" viewBox="0 0 64 64" xmlns="http://www.w3.org/2000/svg"><g><path d="m8 28c-1.104 0-2-.896-2-2v-16c0-1.104.896-2 2-2s2 .896 2 2v16c0 1.104-.896 2-2 2z"/></g><g><path d="m10 30c-2.206 0-4-1.794-4-4 0-1.104.896-2 2-2s2 .896 2 2v.003c1.104 0 2 .894 2 1.999s-.896 1.998-2 1.998z"/></g><g><path d="m26 30h-16c-1.104 0-2-.896-2-2s.896-2 2-2h16c1.104 0 2 .896 2 2s-.896 2-2 2z"/></g><g><path d="m26 30c-1.104 0-2-.896-2-2s.896-2 2-2h.002c0-1.104.894-2 1.999-2s1.999.896 1.999 2c0 2.206-1.794 4-4 4z"/></g><g><path d="m28 28c-1.104 0-2-.896-2-2v-16c0-1.104.896-2 2-2s2 .896 2 2v16c0 1.104-.896 2-2 2z"/></g><g><path d="m26 10h-16c-1.104 0-2-.896-2-2s.896-2 2-2h16c1.104 0 2 .896 2 2s-.896 2-2 2z"/></g><g><path d="m28 12c-1.104 0-2-.896-2-2v-.002c-1.104 0-2-.895-2-1.999s.896-1.999 2-1.999c2.206 0 4 1.794 4 4 0 1.104-.896 2-2 2z"/></g><g><path d="m7.999 12c-1.105 0-1.999-.896-1.999-2 0-2.206 1.794-4 4-4 1.104 0 2 .896 2 2s-.896 2-2 2h-.002c0 1.104-.895 2-1.999 2z"/></g><g><path d="m8 56c-1.104 0-2-.896-2-2v-16c0-1.104.896-2 2-2s2 .896 2 2v16c0 1.104-.896 2-2 2z"/></g><g><path d="m7.999 40c-1.105 0-1.999-.896-1.999-2 0-2.206 1.794-4 4-4 1.104 0 2 .896 2 2s-.896 2-2 2h-.002c0 1.104-.895 2-1.999 2z"/></g><g><path d="m26 38h-16c-1.104 0-2-.896-2-2s.896-2 2-2h16c1.104 0 2 .896 2 2s-.896 2-2 2z"/></g><g><path d="m28 40c-1.104 0-2-.896-2-2v-.002c-1.104 0-2-.895-2-1.999s.896-1.999 2-1.999c2.206 0 4 1.794 4 4 0 1.104-.896 2-2 2z"/></g><g><path d="m28 56c-1.104 0-2-.896-2-2v-16c0-1.104.896-2 2-2s2 .896 2 2v16c0 1.104-.896 2-2 2z"/></g><g><path d="m26 58h-16c-1.104 0-2-.896-2-2s.896-2 2-2h16c1.104 0 2 .896 2 2s-.896 2-2 2z"/></g><g><path d="m26 58c-1.104 0-2-.896-2-2s.896-2 2-2h.002c0-1.104.894-2 1.999-2s1.999.896 1.999 2c0 2.206-1.794 4-4 4z"/></g><g><path d="m10 58c-2.206 0-4-1.794-4-4 0-1.104.896-2 2-2s2 .896 2 2v.003c1.104 0 2 .894 2 1.999s-.896 1.998-2 1.998z"/></g><g><path d="m56 28c-1.104 0-2-.896-2-2v-16c0-1.104.896-2 2-2s2 .896 2 2v16c0 1.104-.896 2-2 2z"/></g><g><path d="m54 30c-1.104 0-2-.896-2-2s.896-2 2-2h.002c0-1.104.894-2 1.999-2s1.999.896 1.999 2c0 2.206-1.794 4-4 4z"/></g><g><path d="m54 30h-16c-1.104 0-2-.896-2-2s.896-2 2-2h16c1.104 0 2 .896 2 2s-.896 2-2 2z"/></g><g><path d="m38 30c-2.206 0-4-1.794-4-4 0-1.104.896-2 2-2s2 .896 2 2v.003c1.104 0 2 .894 2 1.999s-.896 1.998-2 1.998z"/></g><g><path d="m36 28c-1.104 0-2-.896-2-2v-16c0-1.104.896-2 2-2s2 .896 2 2v16c0 1.104-.896 2-2 2z"/></g><g><path d="m54 10h-16c-1.104 0-2-.896-2-2s.896-2 2-2h16c1.104 0 2 .896 2 2s-.896 2-2 2z"/></g><g><path d="m35.999 12c-1.105 0-1.999-.896-1.999-2 0-2.206 1.794-4 4-4 1.104 0 2 .896 2 2s-.896 2-2 2h-.002c0 1.104-.895 2-1.999 2z"/></g><g><path d="m56 12c-1.104 0-2-.896-2-2v-.002c-1.104 0-2-.895-2-1.999s.896-1.999 2-1.999c2.206 0 4 1.794 4 4 0 1.104-.896 2-2 2z"/></g><g><path d="m56 56c-1.104 0-2-.896-2-2v-16c0-1.104.896-2 2-2s2 .896 2 2v16c0 1.104-.896 2-2 2z"/></g><g><path d="m56 40c-1.104 0-2-.896-2-2v-.002c-1.104 0-2-.895-2-1.999s.896-1.999 2-1.999c2.206 0 4 1.794 4 4 0 1.104-.896 2-2 2z"/></g><g><path d="m54 38h-16c-1.104 0-2-.896-2-2s.896-2 2-2h16c1.104 0 2 .896 2 2s-.896 2-2 2z"/></g><g><path d="m35.999 40c-1.105 0-1.999-.896-1.999-2 0-2.206 1.794-4 4-4 1.104 0 2 .896 2 2s-.896 2-2 2h-.002c0 1.104-.895 2-1.999 2z"/></g><g><path d="m36 56c-1.104 0-2-.896-2-2v-16c0-1.104.896-2 2-2s2 .896 2 2v16c0 1.104-.896 2-2 2z"/></g><g><path d="m54 58h-16c-1.104 0-2-.896-2-2s.896-2 2-2h16c1.104 0 2 .896 2 2s-.896 2-2 2z"/></g><g><path d="m38 58c-2.206 0-4-1.794-4-4 0-1.104.896-2 2-2s2 .896 2 2v.003c1.104 0 2 .894 2 1.999s-.896 1.998-2 1.998z"/></g><g><path d="m54 58c-1.104 0-2-.896-2-2s.896-2 2-2h.002c0-1.104.894-2 1.999-2s1.999.896 1.999 2c0 2.206-1.794 4-4 4z"/></g></svg>