<svg width="420" height="512" viewBox="0 0 420 512" fill="none" xmlns="http://www.w3.org/2000/svg">
<path d="M310 190.005H114.997C109.474 190.005 104.997 194.482 104.997 200.005C104.997 205.528 109.474 210.005 114.997 210.005H310C315.523 210.005 320 205.528 320 200.005C320 194.482 315.523 190.005 310 190.005Z" fill="#222831"/>
<path d="M310 235.007H70.0006C64.4776 235.007 60.0006 239.484 60.0006 245.007C60.0006 250.53 64.4776 255.007 70.0006 255.007H310C315.523 255.007 320 250.53 320 245.007C320 239.484 315.523 235.007 310 235.007Z" fill="#00ADB5"/>
<path d="M70.0006 165.004H310C315.523 165.004 320 160.527 320 155.004C320 149.481 315.523 145.004 310 145.004H70.0006C64.4776 145.004 60.0006 149.481 60.0006 155.004C60.0006 160.527 64.4776 165.004 70.0006 165.004Z" fill="#00ADB5"/>
<path d="M170 280.008H69.9996C64.4766 280.008 59.9996 284.485 59.9996 290.008C59.9996 295.531 64.4766 300.008 69.9996 300.008H170C175.523 300.008 180 295.531 180 290.008C180 284.485 175.523 280.008 170 280.008Z" fill="#00ADB5"/>
<path d="M130.001 325.01H70.0006C64.4776 325.01 60.0006 329.487 60.0006 335.01C60.0006 340.533 64.4776 345.01 70.0006 345.01H130.001C135.524 345.01 140.001 340.533 140.001 335.01C140.001 329.487 135.524 325.01 130.001 325.01Z" fill="#00ADB5"/>
<path d="M70.0006 210.005C75.5236 210.005 80.0006 205.528 80.0006 200.005C80.0006 194.482 75.5236 190.005 70.0006 190.005H69.9936C64.4706 190.005 59.9976 194.482 59.9976 200.005C59.9976 205.528 64.4776 210.005 70.0006 210.005Z" fill="#222831"/>
<path d="M350 345.336C341.987 345.336 334.454 348.457 328.788 354.122L296.667 386.244L291.212 380.788C285.546 375.122 278.013 372.002 270 372.002C261.987 372.002 254.455 375.122 248.789 380.788C243.123 386.454 240.003 393.987 240.003 402C240.003 410.013 243.124 417.546 248.789 423.211L275.456 449.878C281.305 455.727 288.985 458.65 296.667 458.649C304.348 458.649 312.032 455.725 317.879 449.878L371.212 396.545C382.908 384.849 382.908 365.817 371.212 354.122C365.546 348.457 358.013 345.336 350 345.336ZM357.069 382.404L303.736 435.737C299.837 439.635 293.494 439.636 289.597 435.737L262.93 409.07C261.042 407.182 260.002 404.672 260.002 402.001C260.002 399.331 261.042 396.82 262.93 394.932C264.818 393.044 267.328 392.004 269.999 392.004C272.67 392.004 275.181 393.044 277.068 394.932L289.594 407.458C291.469 409.333 294.013 410.387 296.665 410.387C299.317 410.387 301.861 409.333 303.736 407.458L342.928 368.266C344.816 366.377 347.327 365.338 349.997 365.338C352.668 365.338 355.178 366.378 357.066 368.266C360.968 372.163 360.968 378.506 357.069 382.404Z" fill="#00ADB5"/>
<path d="M389.999 292.001H380V19.9999C380 8.97196 371.028 0 360 0H110.004C107.352 0 104.808 1.054 102.933 2.92899L2.93 102.932C1.055 104.807 0.00100708 107.351 0.00100708 110.003V451.998C0.00100708 463.026 8.97297 471.998 20.0009 471.998H200.001V481.999C200.001 498.541 213.459 511.999 230.001 511.999H390C406.542 511.999 420 498.541 420 481.999V322C419.999 305.459 406.541 292.001 389.999 292.001ZM100.004 34.1419V100.003H34.1429L100.004 34.1419ZM20.0009 451.998V120.003H100.003C111.031 120.003 120.003 111.031 120.003 100.003V19.9999H359.999V292.001H229.999C213.457 292.001 199.999 305.459 199.999 322.001V451.998H20.0009ZM399.999 482C399.999 487.514 395.513 492 389.999 492H230C224.486 492 220 487.514 220 482V322.001C220 316.487 224.486 312.001 230 312.001H389.999C395.513 312.001 399.999 316.487 399.999 322.001V482Z" fill="#222831"/>
</svg>
