<svg id="Layer_1" enable-background="new 0 0 64 64" viewBox="0 0 64 64" xmlns="http://www.w3.org/2000/svg"><g><g id="LWPOLYLINE"><g><path d="m13.082 48.762c-.116 0-.235-.01-.354-.032-1.088-.194-1.812-1.233-1.617-2.321 1.093-6.111 4.712-10.963 9.93-13.313 3.448-1.552 7.639-2.273 12.093-2.085 5.111.215 9.164 1.365 12.39 3.514 3.988 2.823 6.656 7.164 7.366 11.942.162 1.092-.592 2.109-1.685 2.272-1.089.163-2.109-.592-2.272-1.685-.55-3.704-2.618-7.069-5.674-9.232-2.553-1.7-5.935-2.631-10.293-2.815-3.854-.163-7.4.439-10.282 1.737-3.995 1.799-6.778 5.578-7.635 10.369-.173.969-1.016 1.649-1.967 1.649z"/></g></g><g id="CIRCLE"><g><path d="m31.934 34.983c-.986 0-1.967-.134-2.914-.4-5.423-1.521-8.866-7.058-7.841-12.604 1.006-5.444 6.214-9.46 11.833-8.942 5.599.515 9.983 5.326 9.983 10.954 0 1.343-.24 2.657-.714 3.905-1.61 4.239-5.769 7.087-10.347 7.087zm.091-17.991c-3.339 0-6.311 2.457-6.913 5.715-.653 3.532 1.537 7.057 4.987 8.025.596.167 1.213.251 1.834.251 2.929 0 5.584-1.811 6.607-4.507.302-.793.454-1.629.454-2.485 0-3.582-2.789-6.643-6.349-6.97-.207-.02-.414-.029-.62-.029z"/></g></g><g id="CIRCLE_5_"><g><path d="m31.929 57.98c-.001 0-.001 0-.002 0-2.273 0-4.528-.296-6.701-.881-9.364-2.518-16.697-10.276-18.681-19.763-2.02-9.665 1.711-19.825 9.505-25.884 4.507-3.503 10.19-5.432 16.004-5.432 4.025 0 8.022.936 11.56 2.705 8.736 4.371 14.382 13.503 14.382 23.266 0 7.966-3.759 15.644-10.055 20.538-4.523 3.515-10.211 5.451-16.012 5.451zm.125-47.96c-4.929 0-9.741 1.63-13.549 4.591-6.597 5.127-9.754 13.727-8.044 21.907 1.678 8.025 7.882 14.588 15.804 16.719 1.834.493 3.739.744 5.663.744h.001c4.918 0 9.732-1.637 13.557-4.61 5.328-4.142 8.51-10.64 8.51-17.38 0-8.261-4.777-15.989-12.171-19.688-2.985-1.494-6.364-2.283-9.771-2.283z"/></g></g></g></svg>