<svg id="Layer_1" enable-background="new 0 0 64 64" viewBox="0 0 64 64" xmlns="http://www.w3.org/2000/svg"><g><path d="m16.739 42.689c-.705 0-1.39-.374-1.754-1.036-.716-1.3-1.288-2.68-1.698-4.101-.308-1.061.304-2.17 1.365-2.477 1.063-.31 2.17.305 2.477 1.366.329 1.137.786 2.241 1.36 3.282.533.967.181 2.184-.787 2.717-.306.169-.637.249-.963.249z"/></g><g><path d="m27.501 51.29c-.184 0-.371-.025-.557-.079-1.421-.411-2.801-.982-4.101-1.699-.968-.533-1.32-1.75-.787-2.717.533-.968 1.751-1.319 2.717-.787 1.041.574 2.146 1.031 3.282 1.36 1.062.307 1.673 1.416 1.365 2.477-.252.876-1.051 1.445-1.919 1.445z"/></g><g><path d="m15.209 28.998c-.184 0-.371-.025-.557-.079-1.062-.307-1.673-1.416-1.365-2.477.41-1.421.982-2.8 1.698-4.101.532-.968 1.75-1.32 2.717-.787.968.533 1.32 1.75.787 2.717-.574 1.042-1.031 2.146-1.36 3.282-.253.876-1.052 1.445-1.92 1.445z"/></g><g><path d="m23.811 18.235c-.705 0-1.39-.374-1.754-1.036-.533-.967-.181-2.184.787-2.717 1.3-.716 2.68-1.288 4.101-1.699 1.062-.309 2.17.305 2.477 1.366.308 1.061-.304 2.17-1.365 2.477-1.137.329-2.241.786-3.282 1.36-.307.169-.638.249-.964.249z"/></g><g><path d="m41.189 18.235c-.326 0-.657-.08-.963-.249-1.041-.574-2.146-1.031-3.282-1.36-1.062-.307-1.673-1.416-1.365-2.477.306-1.061 1.411-1.674 2.477-1.366 1.421.411 2.801.982 4.101 1.699.968.533 1.32 1.75.787 2.717-.365.662-1.049 1.036-1.755 1.036z"/></g><g><path d="m49.791 28.998c-.868 0-1.667-.569-1.92-1.445-.329-1.137-.786-2.241-1.36-3.282-.533-.967-.181-2.184.787-2.717.966-.533 2.185-.181 2.717.787.716 1.3 1.288 2.68 1.698 4.101.308 1.061-.304 2.17-1.365 2.477-.186.054-.373.079-.557.079z"/></g><g><path d="m48.261 42.689c-.326 0-.657-.08-.963-.249-.968-.533-1.32-1.75-.787-2.717.574-1.042 1.031-2.146 1.36-3.282.306-1.061 1.413-1.675 2.477-1.366 1.062.307 1.673 1.416 1.365 2.477-.41 1.421-.982 2.8-1.698 4.101-.365.662-1.049 1.036-1.754 1.036z"/></g><g><path d="m37.499 51.29c-.868 0-1.667-.569-1.92-1.445-.308-1.061.304-2.17 1.365-2.477 1.137-.329 2.241-.786 3.282-1.36.967-.532 2.184-.181 2.717.787.533.967.181 2.184-.787 2.717-1.3.716-2.68 1.288-4.101 1.699-.185.054-.372.079-.556.079z"/></g><g><path d="m32.517 43.974s.001 0 0 0c-2.944 0-5.761-1.05-7.933-2.958-4.125-3.622-5.262-9.77-2.7-14.618 2.053-3.884 6.242-6.394 10.672-6.394.971 0 1.938.12 2.874.354 5.256 1.319 9.07 6.214 9.07 11.639 0 3.883-1.894 7.544-5.064 9.793-2.013 1.429-4.406 2.184-6.919 2.184zm.039-19.97c-2.966 0-5.767 1.673-7.135 4.263-1.707 3.23-.948 7.328 1.803 9.743 1.441 1.266 3.321 1.963 5.293 1.963 1.68 0 3.271-.5 4.604-1.445 2.116-1.5 3.379-3.942 3.379-6.531 0-3.617-2.542-6.88-6.045-7.759-.618-.155-1.257-.234-1.899-.234z"/></g><g><path d="m19.436 54.131c-.373 0-.75-.104-1.087-.322-3.083-2-5.66-4.577-7.66-7.661-.602-.927-.337-2.165.589-2.766.928-.602 2.165-.337 2.767.589 1.692 2.609 3.873 4.79 6.482 6.482.926.601 1.19 1.839.589 2.766-.384.591-1.025.912-1.68.912z"/></g><g><path d="m32.5 58.001c-1.81 0-3.619-.191-5.417-.574-1.08-.23-1.77-1.292-1.539-2.373.229-1.08 1.285-1.771 2.373-1.54 3.041.647 6.125.647 9.166 0 1.084-.232 2.143.459 2.373 1.54s-.459 2.143-1.539 2.373c-1.798.383-3.607.574-5.417.574z"/></g><g><path d="m9.024 38.998c-.924 0-1.754-.644-1.954-1.584-.766-3.594-.766-7.239 0-10.833.229-1.08 1.287-1.771 2.373-1.54 1.08.23 1.77 1.292 1.539 2.373-.647 3.042-.647 6.125 0 9.167.23 1.08-.459 2.143-1.539 2.373-.14.029-.281.044-.419.044z"/></g><g><path d="m12.364 20.935c-.373 0-.75-.104-1.087-.322-.926-.601-1.19-1.839-.589-2.766 2-3.083 4.577-5.661 7.66-7.661.929-.603 2.165-.337 2.767.589.602.927.337 2.165-.589 2.766-2.609 1.692-4.79 3.873-6.482 6.482-.383.591-1.024.912-1.68.912z"/></g><g><path d="m37.502 10.524c-.138 0-.278-.015-.419-.044-3.041-.647-6.125-.647-9.166 0-1.088.229-2.144-.46-2.373-1.54-.23-1.08.459-2.143 1.539-2.373 3.596-.766 7.238-.766 10.834 0 1.08.23 1.77 1.292 1.539 2.373-.2.94-1.03 1.584-1.954 1.584z"/></g><g><path d="m52.636 20.935c-.655 0-1.297-.321-1.68-.912-1.692-2.609-3.873-4.79-6.482-6.482-.926-.601-1.19-1.839-.589-2.766.601-.926 1.837-1.192 2.767-.589 3.083 2 5.66 4.577 7.66 7.661.602.927.337 2.165-.589 2.766-.337.218-.714.322-1.087.322z"/></g><g><path d="m55.976 38.998c-.138 0-.278-.015-.419-.044-1.08-.23-1.77-1.292-1.539-2.373.647-3.042.647-6.125 0-9.167-.23-1.08.459-2.143 1.539-2.373 1.082-.231 2.143.459 2.373 1.54.766 3.594.766 7.239 0 10.833-.201.94-1.031 1.584-1.954 1.584z"/></g><g><path d="m45.564 54.131c-.655 0-1.297-.321-1.68-.912-.602-.927-.337-2.165.589-2.766 2.609-1.692 4.79-3.873 6.482-6.482.601-.927 1.837-1.191 2.767-.589.926.601 1.19 1.839.589 2.766-2 3.083-4.577 5.661-7.66 7.661-.337.218-.713.322-1.087.322z"/></g><g><path d="m55.974 38.998h-6.182c-1.104 0-2-.896-2-2s.896-2 2-2h6.182c1.104 0 2 .896 2 2s-.896 2-2 2z"/></g><g><path d="m15.208 38.998h-6.182c-1.104 0-2-.896-2-2s.896-2 2-2h6.182c1.104 0 2 .896 2 2s-.895 2-2 2z"/></g><g><path d="m55.974 28.998h-6.182c-1.104 0-2-.896-2-2s.896-2 2-2h6.182c1.104 0 2 .896 2 2s-.896 2-2 2z"/></g><g><path d="m15.208 28.998h-6.182c-1.104 0-2-.896-2-2s.896-2 2-2h6.182c1.104 0 2 .896 2 2s-.895 2-2 2z"/></g><g><path d="m48.263 25.306c-.512 0-1.023-.195-1.414-.586-.781-.781-.781-2.047 0-2.828l4.371-4.371c.781-.781 2.047-.781 2.828 0s.781 2.047 0 2.828l-4.371 4.371c-.391.391-.903.586-1.414.586z"/></g><g><path d="m19.438 54.131c-.512 0-1.023-.195-1.414-.586-.781-.781-.781-2.047 0-2.828l4.371-4.371c.781-.781 2.047-.781 2.828 0s.781 2.047 0 2.828l-4.371 4.371c-.391.391-.903.586-1.414.586z"/></g><g><path d="m41.191 18.235c-.512 0-1.023-.195-1.414-.586-.781-.781-.781-2.047 0-2.828l4.371-4.371c.781-.781 2.047-.781 2.828 0s.781 2.047 0 2.828l-4.371 4.371c-.39.391-.902.586-1.414.586z"/></g><g><path d="m12.366 47.06c-.512 0-1.023-.195-1.414-.586-.781-.781-.781-2.047 0-2.828l4.371-4.371c.781-.781 2.047-.781 2.828 0s.781 2.047 0 2.828l-4.371 4.371c-.39.391-.902.586-1.414.586z"/></g><g><path d="m27.5 57.471c-1.104 0-2-.896-2-2v-6.181c0-1.104.896-2 2-2s2 .896 2 2v6.182c0 1.104-.896 1.999-2 1.999z"/></g><g><path d="m27.5 16.706c-1.104 0-2-.896-2-2v-6.182c0-1.104.896-2 2-2s2 .896 2 2v6.182c0 1.104-.896 2-2 2z"/></g><g><path d="m37.5 57.471c-1.104 0-2-.896-2-2v-6.181c0-1.104.896-2 2-2s2 .896 2 2v6.182c0 1.104-.896 1.999-2 1.999z"/></g><g><path d="m37.5 16.706c-1.104 0-2-.896-2-2v-6.182c0-1.104.896-2 2-2s2 .896 2 2v6.182c0 1.104-.896 2-2 2z"/></g><g><path d="m52.634 47.06c-.512 0-1.023-.195-1.414-.586l-4.371-4.371c-.781-.781-.781-2.047 0-2.828s2.047-.781 2.828 0l4.371 4.371c.781.781.781 2.047 0 2.828-.391.391-.902.586-1.414.586z"/></g><g><path d="m23.809 18.235c-.512 0-1.023-.195-1.414-.586l-4.371-4.371c-.781-.781-.781-2.047 0-2.828s2.047-.781 2.828 0l4.371 4.371c.781.781.781 2.047 0 2.828-.391.391-.903.586-1.414.586z"/></g><g><path d="m45.563 54.131c-.512 0-1.023-.195-1.414-.586l-4.371-4.371c-.781-.781-.781-2.047 0-2.828s2.047-.781 2.828 0l4.371 4.371c.781.781.781 2.047 0 2.828-.391.391-.903.586-1.414.586z"/></g><g><path d="m16.737 25.306c-.512 0-1.023-.195-1.414-.586l-4.371-4.371c-.781-.781-.781-2.047 0-2.828s2.047-.781 2.828 0l4.371 4.371c.781.781.781 2.047 0 2.828-.39.391-.902.586-1.414.586z"/></g></svg>